# xmcd
#
# Track frame offsets:
#	150
#	3472
#	19208
#	35600
#	51126
#	69724
#	88391
#	107657
#	124994
#	142736
#	161240
#	178974
#	194353
#	208461
#	224078
#	244785
#	262286
#	279232
#	295095
#	312312
#
# Disc length: 4385 seconds
#
# Revision: 1
# Processed by: cddbd v1.5.2PL0 Copyright (c) Steve Scherf et al.
# Submitted via: audiograbber 1.83.01
#
DISCID=47111f14
DTITLE=Dixie Chicks - Taking The Long Way [CD2)
DYEAR=2006
DGENRE=Country
TTITLE0=Intro
TTITLE1=Models
TTITLE2=Biology
TTITLE3=Wild Horses
TTITLE4=See The Day
TTITLE5=Watch Me Go
TTITLE6=Waiting
TTITLE7=Whole Lotta History
TTITLE8=Long Hot Summer
TTITLE9=Swinging London Town
TTITLE10=It's Magic
TTITLE11=No Regrets
TTITLE12=Racy Lacey
TTITLE13=Love Machine
TTITLE14=Don't Ya (feat. Busta Rhymes)
TTITLE15=Beep
TTITLE16=Wait A Minute (feat. Timbaland)
TTITLE17=Stick-with-us
TTITLE18=Buttons
TTITLE19=I Don't Need A Man
EXTD=
EXTT0=
EXTT1=
EXTT2=
EXTT3=
EXTT4=
EXTT5=
EXTT6=
EXTT7=
EXTT8=
EXTT9=
EXTT10=
EXTT11=
EXTT12=
EXTT13=
EXTT14=
EXTT15=
EXTT16=
EXTT17=
EXTT18=
EXTT19=
PLAYORDER=
